<?xml version="1.0" encoding="UTF-8" standalone="no"?>
<svg
   id="svg"
   version="1.1"
   style="display:block"
   viewBox="0 0 208.3136 68.811813"
   sodipodi:docname="easyscan-logo2.svg"
   width="208.3136"
   height="68.811813"
   inkscape:version="1.4.1-rc (06eac75fbf, 2025-03-29)"
   xmlns:inkscape="http://www.inkscape.org/namespaces/inkscape"
   xmlns:sodipodi="http://sodipodi.sourceforge.net/DTD/sodipodi-0.dtd"
   xmlns:xlink="http://www.w3.org/1999/xlink"
   xmlns="http://www.w3.org/2000/svg"
   xmlns:svg="http://www.w3.org/2000/svg">
  <defs
     id="defs4">
    <color-profile
       name="Artifex-Software-A98-ICC-Profile"
       xlink:href="file:///snap/inkscape/10758/usr/share/color/icc/ghostscript/a98.icc"
       id="color-profile1" />
  </defs>
  <sodipodi:namedview
     id="namedview4"
     pagecolor="#ffffff"
     bordercolor="#000000"
     borderopacity="0.25"
     inkscape:showpageshadow="2"
     inkscape:pageopacity="0.0"
     inkscape:pagecheckerboard="true"
     inkscape:deskcolor="#d1d1d1"
     inkscape:document-units="px"
     inkscape:zoom="17.377358"
     inkscape:cx="80.478284"
     inkscape:cy="34.412595"
     inkscape:window-width="2773"
     inkscape:window-height="1525"
     inkscape:window-x="457"
     inkscape:window-y="63"
     inkscape:window-maximized="0"
     inkscape:current-layer="svg" />
  <path
     d="m 55.313592,10.384362 c 1.463284,4.458139 -0.08219,6.795574 -2,11 -0.366694,1.659646 -0.707079,3.325758 -1,5 1.111172,0.121172 2.222344,0.242344 3.367187,0.367187 7.956106,0.888881 15.820467,1.828487 23.632813,3.632813 0,0.99 0,1.98 0,3 0.724775,0.08975 1.449551,0.179502 2.196289,0.271973 31.040989,3.965306 31.040989,3.965306 42.803709,15.728027 0,0.66 0,1.32 0,2 0.59813,0.226875 1.19625,0.45375 1.8125,0.6875 2.80925,1.685548 3.82044,3.362522 5.1875,6.3125 -0.33,0.99 -0.66,1.98 -1,3 -1.0704,-0.162261 -2.14081,-0.324521 -3.24365,-0.491699 -5.61412,-0.697401 -11.20807,-0.651549 -16.85791,-0.641114 -1.7311,-0.0014 -1.7311,-0.0014 -3.49716,-0.0029 -2.43568,-6.78e-4 -4.87136,0.0012 -7.30704,0.0053 -3.686403,0.0053 -7.372683,5.8e-5 -11.059082,-0.0063 -10.453368,-0.0027 -20.837279,0.0031 -31.256347,0.914063 -4.220783,0.338196 -8.422454,0.332989 -12.653809,0.285156 -0.795352,-0.0045 -1.590703,-0.009 -2.410156,-0.01367 -1.904983,-0.01148 -3.809926,-0.0294 -5.714844,-0.04884 1.176045,-3.091775 2.487437,-5.858153 4.1875,-8.6875 3.264984,-6.481236 1.405692,-12.835694 -0.75,-19.4375 -0.474375,-1.27875 -0.94875,-2.5575 -1.4375,-3.875 2.97,0 5.94,0 9,0 0.20625,-1.27875 0.4125,-2.5575 0.625,-3.875 1.244461,-5.755633 4.150155,-10.267451 7.375,-15.125 z m -6,20 c 0,0.33 0,0.66 0,1 6.048295,0.896044 11.889458,1.112694 18,1 0,-0.33 0,-0.66 0,-1 -6.048295,-0.896044 -11.889458,-1.112694 -18,-1 z m 20,2 c 0,0.33 0,0.66 0,1 2.97,0 5.94,0 9,0 0,-0.33 0,-0.66 0,-1 -2.97,0 -5.94,0 -9,0 z m -23,1 c 0.575844,2.385641 1.222276,4.666828 2,7 0.203125,2.015625 0.203125,2.015625 0.25,4.25 0.02578,0.727031 0.05156,1.454062 0.07813,2.203125 -0.328125,2.546875 -0.328125,2.546875 -3.328125,9.546875 26.4,0 52.8,0 80.000003,0 C 118.89249,45.682524 108.14672,41.764346 96.444451,38.820153 80.158112,35.112168 62.972749,34.124202 46.313592,33.384362 Z"
     style="fill:#000000"
     id="chassis" />
  <path
     d="m 139.31359,0.3843616 c 3.39118,1.461666 6.41092,3.3625715 9.5,5.375 0.82242,0.5078906 1.64485,1.0157812 2.49219,1.5390625 4.37281,2.7602449 4.37281,2.7602449 6.00781,4.0859379 0,0.66 0,1.32 0,2 0.69481,0.237187 1.38961,0.474375 2.10547,0.71875 3.41651,1.512303 6.2521,3.533634 9.20703,5.78125 0.54979,0.403477 1.09957,0.806953 1.66602,1.222656 1.38156,1.040031 2.70704,2.153679 4.02148,3.277344 0,0.66 0,1.32 0,2 0.88365,0.39252 0.88365,0.39252 1.78516,0.792969 2.3327,1.271258 3.81839,2.609336 5.65234,4.519531 0.60457,0.622617 1.20914,1.245234 1.83203,1.886719 0.57106,0.594258 1.14211,1.188515 1.73047,1.800781 0.86625,0.86625 1.7325,1.7325 2.625,2.625 1.63545,1.63545 3.25987,3.281986 4.875,4.9375 2.39391,2.432062 2.39391,2.432062 4.875,4.25 4.82301,4.019174 9.08233,8.016822 10.625,14.1875 -15.18,0.33 -30.36,0.66 -46,1 0.33,-1.65 0.66,-3.3 1,-5 2,-1.125 2,-1.125 4,-2 0.33,-0.99 0.66,-1.98 1,-3 1.9961,-1.824219 1.9961,-1.824219 4.4375,-3.6875 0.80309,-0.622617 1.60617,-1.245234 2.4336,-1.886719 2.1289,-1.425781 2.1289,-1.425781 4.1289,-1.425781 -1.97048,-7.060906 -5.67612,-10.971766 -11.3125,-15.5 -0.96164,-0.774727 -1.92328,-1.549453 -2.91406,-2.347656 -2.28147,-1.770552 -4.58264,-3.454154 -6.96094,-5.089844 -0.92812,-0.680625 -1.85625,-1.36125 -2.8125,-2.0625 0,-0.66 0,-1.32 0,-2 -0.70254,-0.243633 -1.40508,-0.487266 -2.1289,-0.738281 -4.37859,-1.924196 -7.99811,-4.85207 -11.83594,-7.6796881 -3.63188,-1.893066 -5.1707,-1.7473305 -9.03516,-0.5820313 -0.86625,0.53625 -1.7325,1.0725004 -2.625,1.6250004 -2.375,1.375 -2.375,1.375 -4.6875,1.0625 -0.55687,-0.226875 -1.11375,-0.45375 -1.6875,-0.6875 0.57571,-3.8860303 2.41576,-6.111729 5,-9.0000004 3.75907,-2.50604343 6.65205,-2.7750859 11,-2 z m -10,5 c 0,0.66 0,1.32 0,2 0.66,0 1.32,0 2,0 0,-0.66 0,-1.32 0,-2 3.465,-0.495 3.465,-0.495 7,-1 -0.33,-0.66 -0.66,-1.32 -1,-2 -4.22528,0 -5.04518,0.2562433 -8,3 z m 30,13.0000004 c 0.33,0.66 0.66,1.32 1,2 0.66,-0.33 1.32,-0.66 2,-1 -0.99,-0.33 -1.98,-0.66 -3,-1 z m 3,2 c 0.72188,0.721875 1.44375,1.44375 2.1875,2.1875 1.85429,1.854284 3.68833,3.729063 5.5,5.625 2.02412,2.416567 2.02412,2.416567 4.3125,2.1875 0.22688,0.53625 0.45375,1.0725 0.6875,1.625 1.3214,2.608916 1.3214,2.608916 3.9375,5.25 2.375,3.125 2.375,3.125 3.1875,6.125 -1.27003,4.689329 -4.8087,6.531792 -8.8125,9 -0.99,0.495 -0.99,0.495 -2,1 0,0.66 0,1.32 0,2 -1.485,0.495 -1.485,0.495 -3,1 0,0.66 0,1.32 0,2 -0.99,0.495 -0.99,0.495 -2,1 12.381,0.110287 24.65864,0.0765 37,-1 0.22907,-2.288379 0.22907,-2.288379 -2.1875,-4.3125 -0.92812,-0.886875 -1.85625,-1.77375 -2.8125,-2.6875 -0.825,-0.845625 -1.65,-1.69125 -2.5,-2.5625 -2.42764,-2.446469 -2.42764,-2.446469 -5,-4.4375 -3.71019,-2.968157 -6.90876,-6.381265 -10.1875,-9.8125 -2.02412,-2.416567 -2.02412,-2.416567 -4.3125,-2.1875 -0.33,-0.99 -0.66,-1.98 -1,-3 -0.66,0 -1.32,0 -2,0 0,-0.66 0,-1.32 0,-2 -1.94376,-1.816288 -1.94376,-1.816288 -4.375,-3.625 -0.81211,-0.631641 -1.62422,-1.263281 -2.46094,-1.914063 -2.00516,-1.647445 -2.00516,-1.647445 -4.16406,-1.460937 z"
     style="fill:#000000"
     id="front" />
  <path
     d="m 21.313592,24.384362 c -0.747656,0.484687 -1.495313,0.969375 -2.265625,1.46875 -8.448308,5.671707 -8.448308,5.671707 -12.734375,14.53125 -0.841838,6.363895 -0.186443,11.423724 3,17 2.464559,2.728619 3.676372,2.970034 7.375,3.3125 3.527484,-0.304093 6.338646,-1.03002 9.625,-2.3125 0,-0.66 0,-1.32 0,-2 0.763125,-0.7425 1.52625,-1.485 2.3125,-2.25 4.920985,-5.035426 5.859923,-8.674486 5.875,-15.625 -0.04797,-2.04206 -0.105739,-4.084014 -0.1875,-6.125 0.66,0 1.32,0 2,0 2.098819,6.296458 2.196512,14.590633 -0.01172,20.882812 -1.909873,3.475628 -3.978431,6.502734 -6.98828,9.117188 -0.66,0 -1.32,0 -2,0 0,0.66 0,1.32 0,2 -3.989827,3.577086 -8.243547,3.502375 -13.34375,3.351562 -5.044368,-0.667636 -7.673773,-3.262871 -10.96875,-6.914062 -2.95625704,-4.270149 -2.90114004,-8.236801 -2.93750004,-13.25 -0.02062,-0.699316 -0.04125,-1.398633 -0.0625,-2.119141 -0.04363,-5.829875 1.21247104,-9.762357 5.14453104,-14.080078 10.367969,-8.772897 10.367969,-8.772897 16.167969,-6.988281 z"
     style="fill:#000000"
     id="backwheel" />
  <path
     d="m 149.31359,37.384362 c -0.54269,0.351914 -1.08539,0.703828 -1.64453,1.066406 -4.90319,3.383646 -7.83018,5.934124 -9.35547,11.933594 -0.16639,4.462214 0.25354,7.838833 2.6875,11.625 2.29558,1.659007 2.29558,1.659007 5.3125,1.1875 0.99,-0.268125 1.98,-0.53625 3,-0.8125 0.78375,-0.185625 1.5675,-0.37125 2.375,-0.5625 0.53625,-0.144375 1.0725,-0.28875 1.625,-0.4375 0,-0.66 0,-1.32 0,-2 0.45375,-0.433125 0.9075,-0.86625 1.375,-1.3125 3.31936,-3.447029 3.74274,-6.87226 3.75,-11.5 -0.0319,-1.396091 -0.0703,-2.792118 -0.125,-4.1875 0.66,0.33 1.32,0.66 2,1 1.86874,6.294709 0.95023,12.222935 -2,18 -2.5625,2.9375 -2.5625,2.9375 -5,5 -0.66,0.66 -1.32,1.32 -2,2 -5.04445,0.698588 -9.56238,0.792154 -14.0625,-1.6875 -4.48698,-5.355425 -4.41474,-10.576943 -3.9375,-17.3125 0.72407,-4.706454 2.3347,-6.503765 6,-9.3125 5.68541,-3.981877 5.68541,-3.981877 10,-2.6875 z"
     style="fill:#000000"
     id="frontwheel" />
</svg>
